<mxfile host="app.diagrams.net" modified="2024-06-17T00:13:55.517Z" agent="Mozilla/5.0 (Windows NT 10.0; Win64; x64) AppleWebKit/537.36 (KHTML, like Gecko) Chrome/126.0.0.0 Safari/537.36 Edg/126.0.0.0" version="24.5.4" etag="v1uK33FxA6BP3IDVAThv" type="github">
  <diagram name="Page-1" id="BkoFkOULgJveJfBGpMqB">
    <mxGraphModel>
      <root>
        <mxCell id="0" />
        <mxCell id="1" parent="0" />
      </root>
    </mxGraphModel>
  </diagram>
</mxfile>
